<svg xmlns="http://www.w3.org/2000/svg" width="888" height="341" viewBox="0 0 888 341">
<g>
<path d="M 0.00 0.00 L 888.00 0.00 L 888.00 341.00 L 0.00 341.00 ZM 188.00 285.48 C196.82,287.29 212.37,287.32 220.84,285.53 C229.23,283.77 239.48,279.79 247.13,275.33 C253.19,271.79 262.84,263.55 261.96,262.65 C261.67,262.34 257.84,263.07 253.46,264.25 C246.77,266.07 242.78,266.41 228.50,266.41 C213.41,266.42 210.36,266.12 201.36,263.80 C175.25,257.06 153.16,242.50 138.08,222.09 C119.66,197.16 113.41,163.56 122.06,136.00 C132.01,104.29 158.16,80.08 189.45,73.61 C199.47,71.53 217.50,71.53 227.47,73.59 C259.79,80.27 286.72,107.47 293.05,139.80 C294.95,149.54 293.81,165.86 290.60,174.63 C286.54,185.74 283.25,190.90 275.07,199.00 C262.77,211.19 250.68,216.43 235.00,216.38 C212.00,216.30 190.28,203.08 180.23,183.05 C176.70,176.01 176.50,175.09 176.50,166.05 C176.50,154.67 178.46,149.74 186.13,141.86 C193.07,134.74 198.49,132.52 209.00,132.51 C216.24,132.50 218.15,132.87 221.88,135.00 C224.29,136.38 227.66,139.46 229.38,141.85 C232.12,145.67 232.50,147.00 232.50,152.85 C232.50,158.27 232.06,160.12 230.10,162.87 C226.90,167.35 220.92,169.95 213.75,169.98 L 208.00 170.00 L 208.00 195.00 L 215.82 195.00 C225.62,195.00 232.79,192.91 240.64,187.75 C260.27,174.87 264.95,147.65 251.18,126.43 C242.18,112.55 227.52,105.02 209.50,105.03 C186.47,105.04 166.52,117.21 156.59,137.31 C150.78,149.08 149.60,154.77 150.27,167.97 C151.16,185.65 157.30,199.59 170.40,213.69 C189.38,234.11 218.18,245.66 243.18,242.86 C279.20,238.84 309.10,212.15 318.64,175.50 C321.64,164.00 322.31,145.93 320.13,135.50 C315.34,112.62 305.02,93.71 288.47,77.50 C257.97,47.63 213.01,37.56 171.00,51.21 C136.07,62.55 109.44,89.94 97.52,126.76 C89.67,151.00 90.16,177.80 98.94,204.00 C112.53,244.53 148.38,277.33 188.00,285.48 ZM 752.31 208.98 C761.71,212.05 774.67,211.42 782.36,207.53 C785.51,205.93 789.84,202.73 791.97,200.41 C795.71,196.36 800.00,189.21 800.00,187.04 C800.00,186.38 795.77,186.00 788.42,186.00 C776.93,186.00 776.83,186.02 773.88,188.96 C767.08,195.77 755.59,192.99 752.07,183.68 C751.48,182.14 751.00,180.45 751.00,179.93 C751.00,179.38 761.40,179.00 776.62,179.00 L 802.24 179.00 L 801.82 169.75 C801.33,158.79 798.47,151.47 792.27,145.27 C778.99,131.99 751.96,132.13 738.73,145.55 C727.72,156.72 724.99,178.02 732.75,192.28 C736.74,199.61 744.88,206.56 752.31,208.98 ZM 672.29 209.61 C674.94,210.47 679.86,210.88 685.56,210.70 C693.06,210.47 695.58,209.95 700.25,207.67 C706.84,204.44 714.84,196.18 717.21,190.15 L 718.84 186.00 L 706.81 186.00 C695.21,186.00 694.72,186.09 692.84,188.48 C691.77,189.84 689.13,191.48 686.98,192.12 C683.71,193.10 682.33,193.01 678.55,191.57 C673.83,189.77 670.61,186.26 669.46,181.69 L 668.78 179.00 L 719.82 179.00 L 720.48 175.13 C721.31,170.21 719.48,160.01 716.71,154.08 C713.53,147.29 706.45,140.70 699.44,138.00 C691.14,134.81 676.96,134.77 668.80,137.91 C661.30,140.80 653.82,147.63 650.30,154.80 C647.68,160.13 647.50,161.31 647.52,173.00 C647.54,183.67 647.86,186.18 649.70,190.17 C653.81,199.05 662.28,206.35 672.29,209.61 ZM 347.00 117.00 L 347.00 210.00 L 404.00 210.00 L 404.00 192.00 L 370.00 192.00 L 370.00 172.05 L 399.50 171.50 L 400.08 154.00 L 370.00 154.00 L 370.00 136.05 L 386.75 135.77 L 403.50 135.50 L 403.79 126.25 L 404.08 117.00 ZM 436.32 209.62 C438.97,210.48 444.01,210.88 450.05,210.71 C458.33,210.48 460.39,210.05 465.55,207.47 C475.88,202.31 480.69,192.99 478.06,183.22 C475.70,174.48 470.48,170.83 453.31,165.95 C441.23,162.52 437.08,159.59 439.06,155.89 C442.07,150.27 451.91,151.06 455.91,157.25 L 458.34 161.00 L 478.00 161.00 L 478.00 158.44 C478.00,154.31 473.17,145.29 469.22,142.03 C457.78,132.60 432.87,133.66 422.92,144.01 C416.07,151.13 415.25,162.80 421.14,169.50 C425.62,174.60 429.39,176.54 441.33,179.86 C453.78,183.33 457.00,185.08 457.00,188.37 C457.00,195.83 442.23,196.22 438.43,188.86 L 436.95 186.00 L 425.97 186.00 C413.58,186.00 413.48,186.08 416.87,193.50 C420.15,200.67 427.46,206.73 436.32,209.62 ZM 581.00 192.43 L 581.00 210.00 L 639.00 210.00 L 639.00 192.00 L 623.50 192.00 C613.07,192.00 608.00,191.65 608.00,190.92 C608.00,190.33 611.49,185.75 615.75,180.76 C620.01,175.77 626.76,167.73 630.75,162.90 L 638.00 154.12 L 638.00 136.00 L 582.00 136.00 L 582.00 155.00 L 611.99 155.00 L 596.50 173.71 ZM 512.83 209.02 C514.30,209.46 519.66,209.87 524.75,209.91 L 534.00 210.00 L 534.00 191.00 L 528.72 191.00 C525.56,191.00 522.55,190.37 521.22,189.44 C519.08,187.94 519.00,187.30 519.00,171.44 L 519.00 155.00 L 534.00 155.00 L 534.00 136.00 L 519.00 136.00 L 519.00 118.00 L 496.00 118.00 L 496.00 136.00 L 487.00 136.00 L 487.00 155.00 L 496.00 155.00 L 496.02 171.75 C496.05,189.89 496.91,195.75 500.29,200.70 C502.49,203.93 507.93,207.54 512.83,209.02 ZM 546.00 136.00 L 546.00 210.00 L 569.00 210.00 L 569.00 136.00 ZM 552.50 127.59 C556.57,129.40 558.76,129.29 563.68,127.06 C568.93,124.67 571.43,120.27 570.69,114.73 C569.30,104.36 556.09,100.48 547.71,107.97 C544.91,110.47 544.50,111.47 544.50,115.84 C544.50,121.43 547.04,125.16 552.50,127.59 ZM 779.00 163.40 L 779.00 166.00 L 765.00 166.00 C757.30,166.00 751.00,165.76 751.00,165.47 C751.00,163.41 754.23,157.97 756.51,156.17 C758.70,154.45 760.62,154.00 765.73,154.00 C771.75,154.00 772.43,154.23 775.60,157.40 C777.72,159.52 779.00,161.78 779.00,163.40 ZM 697.00 163.40 L 697.00 166.00 L 683.50 166.00 C668.65,166.00 668.45,165.90 671.52,159.97 C673.60,155.95 677.85,154.00 684.55,154.00 C689.64,154.00 690.54,154.34 693.60,157.40 C695.72,159.52 697.00,161.78 697.00,163.40 Z" fill="rgb(15,30,50)"/>
<path d="M 188.00 285.48 C148.38,277.33 112.53,244.53 98.94,204.00 C90.16,177.80 89.67,151.00 97.52,126.76 C109.44,89.94 136.07,62.55 171.00,51.21 C213.01,37.56 257.97,47.63 288.47,77.50 C305.02,93.71 315.34,112.62 320.13,135.50 C322.31,145.93 321.64,164.00 318.64,175.50 C309.10,212.15 279.20,238.84 243.18,242.86 C218.18,245.66 189.38,234.11 170.40,213.69 C157.30,199.59 151.16,185.65 150.27,167.97 C149.60,154.77 150.78,149.08 156.59,137.31 C166.52,117.21 186.47,105.04 209.50,105.03 C227.52,105.02 242.18,112.55 251.18,126.43 C264.95,147.65 260.27,174.87 240.64,187.75 C232.79,192.91 225.62,195.00 215.82,195.00 L 208.00 195.00 L 208.00 170.00 L 213.75 169.98 C220.92,169.95 226.90,167.35 230.10,162.87 C232.06,160.12 232.50,158.27 232.50,152.85 C232.50,147.00 232.12,145.67 229.38,141.85 C227.66,139.46 224.29,136.38 221.88,135.00 C218.15,132.87 216.24,132.50 209.00,132.51 C198.49,132.52 193.07,134.74 186.13,141.86 C178.46,149.74 176.50,154.67 176.50,166.05 C176.50,175.09 176.70,176.01 180.23,183.05 C190.28,203.08 212.00,216.30 235.00,216.38 C250.68,216.43 262.77,211.19 275.07,199.00 C283.25,190.90 286.54,185.74 290.60,174.63 C293.81,165.86 294.95,149.54 293.05,139.80 C286.72,107.47 259.79,80.27 227.47,73.59 C217.50,71.53 199.47,71.53 189.45,73.61 C158.16,80.08 132.01,104.29 122.06,136.00 C113.41,163.56 119.66,197.16 138.08,222.09 C153.16,242.50 175.25,257.06 201.36,263.80 C210.36,266.12 213.41,266.42 228.50,266.41 C242.78,266.41 246.77,266.07 253.46,264.25 C257.84,263.07 261.67,262.34 261.96,262.65 C262.84,263.55 253.19,271.79 247.13,275.33 C239.48,279.79 229.23,283.77 220.84,285.53 C212.37,287.32 196.82,287.29 188.00,285.48 Z" fill="rgb(145,215,217)"/>
<path d="M 436.32 209.62 C427.46,206.73 420.15,200.67 416.87,193.50 C413.48,186.08 413.58,186.00 425.97,186.00 L 436.95 186.00 L 438.43 188.86 C442.23,196.22 457.00,195.83 457.00,188.37 C457.00,185.08 453.78,183.33 441.33,179.86 C429.39,176.54 425.62,174.60 421.14,169.50 C415.25,162.80 416.07,151.13 422.92,144.01 C432.87,133.66 457.78,132.60 469.22,142.03 C473.17,145.29 478.00,154.31 478.00,158.44 L 478.00 161.00 L 468.17 161.00 L 458.34 161.00 L 455.91 157.25 C451.91,151.06 442.07,150.27 439.06,155.89 C437.08,159.59 441.23,162.52 453.31,165.95 C470.48,170.83 475.70,174.48 478.06,183.22 C480.69,192.99 475.88,202.31 465.55,207.47 C460.39,210.05 458.33,210.48 450.05,210.71 C444.01,210.88 438.97,210.48 436.32,209.62 ZM 672.29 209.61 C662.28,206.35 653.81,199.05 649.70,190.17 C647.86,186.18 647.54,183.67 647.52,173.00 C647.50,161.31 647.68,160.13 650.30,154.80 C653.82,147.63 661.30,140.80 668.80,137.91 C676.96,134.77 691.14,134.81 699.44,138.00 C706.45,140.70 713.53,147.29 716.71,154.08 C719.48,160.01 721.31,170.21 720.48,175.13 L 719.82 179.00 L 694.30 179.00 L 668.78 179.00 L 669.46 181.69 C670.61,186.26 673.83,189.77 678.55,191.57 C682.33,193.01 683.71,193.10 686.98,192.12 C689.13,191.48 691.77,189.84 692.84,188.48 C694.72,186.09 695.21,186.00 706.81,186.00 L 718.84 186.00 L 717.21 190.15 C714.84,196.18 706.84,204.44 700.25,207.67 C695.58,209.95 693.06,210.47 685.56,210.70 C679.86,210.88 674.94,210.47 672.29,209.61 ZM 697.00 163.40 C697.00,161.78 695.72,159.52 693.60,157.40 C690.54,154.34 689.64,154.00 684.55,154.00 C677.85,154.00 673.60,155.95 671.52,159.97 C668.45,165.90 668.65,166.00 683.50,166.00 L 697.00 166.00 L 697.00 163.40 ZM 752.31 208.98 C744.88,206.56 736.74,199.61 732.75,192.28 C724.99,178.02 727.72,156.72 738.73,145.55 C751.96,132.13 778.99,131.99 792.27,145.27 C798.47,151.47 801.33,158.79 801.82,169.75 L 802.24 179.00 L 776.62 179.00 C761.40,179.00 751.00,179.38 751.00,179.93 C751.00,180.45 751.48,182.14 752.07,183.68 C755.59,192.99 767.08,195.77 773.88,188.96 C776.83,186.02 776.93,186.00 788.42,186.00 C795.77,186.00 800.00,186.38 800.00,187.04 C800.00,189.21 795.71,196.36 791.97,200.41 C789.84,202.73 785.51,205.93 782.36,207.53 C774.67,211.42 761.71,212.05 752.31,208.98 ZM 779.00 163.40 C779.00,161.78 777.72,159.52 775.60,157.40 C772.43,154.23 771.75,154.00 765.73,154.00 C760.62,154.00 758.70,154.45 756.51,156.17 C754.23,157.97 751.00,163.41 751.00,165.47 C751.00,165.76 757.30,166.00 765.00,166.00 L 779.00 166.00 L 779.00 163.40 ZM 347.00 163.50 L 347.00 117.00 L 375.54 117.00 L 404.08 117.00 L 403.79 126.25 L 403.50 135.50 L 386.75 135.77 L 370.00 136.05 L 370.00 145.02 L 370.00 154.00 L 385.04 154.00 L 400.08 154.00 L 399.79 162.75 L 399.50 171.50 L 384.75 171.78 L 370.00 172.05 L 370.00 182.03 L 370.00 192.00 L 387.00 192.00 L 404.00 192.00 L 404.00 201.00 L 404.00 210.00 L 375.50 210.00 L 347.00 210.00 L 347.00 163.50 ZM 512.83 209.02 C507.93,207.54 502.49,203.93 500.29,200.70 C496.91,195.75 496.05,189.89 496.02,171.75 L 496.00 155.00 L 491.50 155.00 L 487.00 155.00 L 487.00 145.50 L 487.00 136.00 L 491.50 136.00 L 496.00 136.00 L 496.00 127.00 L 496.00 118.00 L 507.50 118.00 L 519.00 118.00 L 519.00 127.00 L 519.00 136.00 L 526.50 136.00 L 534.00 136.00 L 534.00 145.50 L 534.00 155.00 L 526.50 155.00 L 519.00 155.00 L 519.00 171.44 C519.00,187.30 519.08,187.94 521.22,189.44 C522.55,190.37 525.56,191.00 528.72,191.00 L 534.00 191.00 L 534.00 200.50 L 534.00 210.00 L 524.75 209.91 C519.66,209.87 514.30,209.46 512.83,209.02 ZM 546.00 173.00 L 546.00 136.00 L 557.50 136.00 L 569.00 136.00 L 569.00 173.00 L 569.00 210.00 L 557.50 210.00 L 546.00 210.00 L 546.00 173.00 ZM 581.00 201.21 L 581.00 192.43 L 596.50 173.71 L 611.99 155.00 L 597.00 155.00 L 582.00 155.00 L 582.00 145.50 L 582.00 136.00 L 610.00 136.00 L 638.00 136.00 L 638.00 145.06 L 638.00 154.12 L 630.75 162.90 C626.76,167.73 620.01,175.77 615.75,180.76 C611.49,185.75 608.00,190.33 608.00,190.92 C608.00,191.65 613.07,192.00 623.50,192.00 L 639.00 192.00 L 639.00 201.00 L 639.00 210.00 L 610.00 210.00 L 581.00 210.00 L 581.00 201.21 ZM 552.50 127.59 C547.04,125.16 544.50,121.43 544.50,115.84 C544.50,111.47 544.91,110.47 547.71,107.97 C556.09,100.48 569.30,104.36 570.69,114.73 C571.43,120.27 568.93,124.67 563.68,127.06 C558.76,129.29 556.57,129.40 552.50,127.59 Z" fill="rgb(253,253,253)"/>
</g>
</svg>