<svg version="1.1" id="Layer_1" xmlns="http://www.w3.org/2000/svg" xmlns:xlink="http://www.w3.org/1999/xlink" x="0px" y="0px"
	 width="100%" viewBox="0 0 1058 286" enable-background="new 0 0 1058 286" xml:space="preserve">
<path fill="#121C2C" opacity="1.000000" stroke="none" 
	d="
M700.000000,287.000000 
	C466.666718,287.000000 233.833420,287.000000 1.000094,287.000000 
	C1.000062,191.666733 1.000062,96.333450 1.000031,1.000132 
	C353.666534,1.000088 706.333069,1.000088 1058.999756,1.000044 
	C1058.999756,96.333191 1058.999756,191.666382 1058.999878,286.999786 
	C939.500000,287.000000 820.000000,287.000000 700.000000,287.000000 
M199.005615,240.657700 
	C198.375473,240.455780 197.755356,240.212189 197.113754,240.057877 
	C153.759979,229.630188 120.441284,190.746384 117.149437,146.727844 
	C112.643837,86.479027 164.924911,39.249031 224.468597,50.057388 
	C268.410767,58.033764 298.908783,101.428429 292.146912,141.691620 
	C286.995667,172.364624 257.603027,198.742905 224.879944,192.844055 
	C202.384705,188.788925 185.030746,177.033707 176.746536,154.875168 
	C169.496155,135.481903 180.836655,114.578979 200.592682,109.536186 
	C214.493103,105.988052 227.695267,112.819244 231.351608,125.451752 
	C234.037231,134.730484 228.821426,144.090958 219.354782,146.015427 
	C215.577667,146.783279 211.514038,146.141663 206.810562,146.141663 
	C206.810562,151.487961 206.807465,156.602020 206.811218,161.716080 
	C206.818863,172.109039 206.820374,172.109055 217.062958,172.031876 
	C242.317352,171.841568 262.016235,147.679092 257.686462,122.863312 
	C253.275650,97.583321 232.204712,81.608124 207.137009,81.779007 
	C172.014465,82.018425 143.383118,113.446259 149.263184,150.736237 
	C156.378799,195.861618 206.348450,228.537476 250.808182,218.422302 
	C295.381409,208.281311 328.386993,164.231323 318.656616,111.977051 
	C309.291168,61.682556 264.931488,24.519876 213.410446,22.181559 
	C157.244095,19.632412 109.936852,53.958664 94.895203,108.176537 
	C78.308701,167.962891 111.981361,235.368500 169.876251,257.617035 
	C199.910141,269.158783 228.277985,265.576080 254.422943,246.515076 
	C256.978271,244.652130 259.176727,242.299744 261.540833,240.174515 
	C261.296967,239.727234 261.053101,239.279938 260.809235,238.832642 
	C240.609680,245.049377 220.271622,245.510864 199.005615,240.657700 
M398.516113,147.781281 
	C398.516113,142.339050 398.516113,136.896835 398.516113,130.942261 
	C388.421478,130.942261 378.531921,130.942261 368.682526,130.942261 
	C368.682526,124.378059 368.682526,118.337196 368.682526,111.910736 
	C380.177948,111.910736 391.268890,111.910736 402.423615,111.910736 
	C402.423615,105.769249 402.423615,100.035072 402.423615,94.360535 
	C383.382812,94.360535 364.654572,94.360535 345.965637,94.360535 
	C345.965637,125.307236 345.965637,155.913467 345.965637,187.001770 
	C363.242859,187.001770 380.351227,187.001770 397.459564,187.001770 
	C399.074524,187.001770 400.689484,187.001770 402.459717,187.001770 
	C402.459717,180.765564 402.459717,175.030365 402.459717,168.732742 
	C390.981476,168.732742 379.765900,168.732742 368.580078,168.732742 
	C368.580078,161.742798 368.580078,155.323196 368.580078,148.275345 
	C378.506714,148.275345 388.134247,148.275345 398.516113,147.781281 
M776.502136,113.861687 
	C752.421997,106.903328 731.365723,119.170471 727.608948,143.039780 
	C725.180969,158.466156 728.838501,172.327759 742.457703,181.757950 
	C755.102783,190.513626 773.159668,190.272690 786.192139,181.364471 
	C792.749207,176.882446 797.205627,170.747009 798.993286,162.492004 
	C792.271729,162.492004 786.111572,162.575089 779.955505,162.454483 
	C777.172791,162.399963 775.128113,162.799347 773.202393,165.374588 
	C769.892883,169.800171 763.148376,170.793808 757.713562,168.415878 
	C752.509338,166.138824 749.797913,161.499695 750.422119,155.349472 
	C767.111633,155.349472 783.857788,155.349472 800.533630,155.349472 
	C802.986023,134.884552 794.881226,120.688988 776.502136,113.861687 
M660.735168,118.151581 
	C646.395630,128.703613 641.204224,147.923599 647.920959,165.592819 
	C653.763428,180.961868 668.798950,189.573959 686.862488,187.897934 
	C701.761597,186.515518 714.434387,176.009674 716.937927,162.493042 
	C710.584961,162.493042 704.317871,162.604980 698.057922,162.442825 
	C695.200928,162.368820 693.267822,162.998535 691.374268,165.501175 
	C688.096252,169.833618 681.226746,170.774261 675.833130,168.347336 
	C670.635498,166.008560 667.893982,161.237152 668.671326,155.303467 
	C685.335938,155.303467 702.066650,155.303467 720.328552,155.303467 
	C718.880981,147.326126 718.698547,139.621475 716.035339,132.899734 
	C708.022949,112.676628 681.861755,105.777588 660.735168,118.151581 
M438.657745,131.027374 
	C446.227203,126.725212 452.316162,128.749115 456.398773,136.892853 
	C463.196320,136.892853 469.972260,136.892853 476.775940,136.892853 
	C475.427765,127.035706 471.264343,119.938194 463.592834,116.151695 
	C451.283508,110.076065 438.705017,110.517441 426.677277,116.848358 
	C418.747467,121.022293 415.338745,128.240494 416.011017,137.255783 
	C416.635162,145.626541 421.921844,150.314011 429.023438,153.392746 
	C431.748108,154.573959 434.701263,155.230469 437.554901,156.111145 
	C442.624512,157.675705 447.792053,158.989883 452.711243,160.933701 
	C454.169800,161.510056 455.769623,163.838623 455.781830,165.376419 
	C455.794250,166.938736 454.277954,169.085663 452.819641,169.984360 
	C447.572906,173.217667 439.885040,170.833649 436.760925,165.515076 
	C436.124603,164.431778 434.871155,162.998550 433.859467,162.963593 
	C427.234070,162.734680 420.596924,162.845718 412.079681,162.845718 
	C414.931274,168.233917 416.479492,173.123138 419.576263,176.654236 
	C430.221893,188.792892 451.675232,191.769623 465.984283,183.659363 
	C473.545441,179.373764 477.745728,173.202744 477.290985,164.160995 
	C476.837616,155.147003 471.514771,149.994385 463.898987,146.607925 
	C461.334198,145.467468 458.575317,144.743195 455.872894,143.936905 
	C451.101196,142.513229 446.227631,141.389938 441.542877,139.728760 
	C437.758118,138.386719 435.695831,135.814011 438.657745,131.027374 
M614.285706,157.796600 
	C619.762085,151.311539 624.643372,144.173981 630.861877,138.502533 
	C639.084229,131.003510 636.374878,122.064163 636.804932,113.455490 
	C617.593140,113.455490 599.054382,113.455490 580.636536,113.455490 
	C580.636536,119.774101 580.636536,125.685181 580.636536,131.960480 
	C590.552124,131.960480 600.118896,131.960480 610.644104,131.960480 
	C602.177307,142.217743 594.973328,152.476624 586.190613,161.133972 
	C578.168152,169.041946 580.528137,177.886215 580.061096,186.779358 
	C599.515869,186.779358 618.272766,186.779358 637.000732,186.779358 
	C637.000732,180.503510 637.000732,174.463470 637.000732,168.017349 
	C626.549683,168.017349 616.507874,168.017349 605.728577,168.017349 
	C608.778625,164.389160 611.313904,161.373322 614.285706,157.796600 
M494.863922,144.514969 
	C494.920898,151.505569 494.712646,158.511063 495.104279,165.482864 
	C495.558258,173.564270 498.691345,180.303299 506.467621,184.018967 
	C514.755005,187.978867 523.491882,186.965347 531.962097,186.861557 
	C531.962097,180.185883 531.962097,174.113373 531.962097,167.662018 
	C528.621582,167.662018 525.435669,168.309952 522.729492,167.449341 
	C520.700745,166.804184 517.915100,164.282318 517.830688,162.485046 
	C517.357849,152.410141 517.603027,142.301529 517.603027,131.843079 
	C522.584351,131.843079 527.191833,131.843079 531.856689,131.843079 
	C531.856689,125.428375 531.856689,119.386589 531.856689,112.943268 
	C526.958801,112.943268 522.368408,112.943268 517.274353,112.943268 
	C517.274353,106.825684 517.274353,101.094879 517.274353,95.376175 
	C509.514984,95.376175 502.287048,95.376175 494.602356,95.376175 
	C494.602356,101.430382 494.602356,107.169289 494.602356,113.189728 
	C491.523560,113.189728 488.910522,113.189728 486.141571,113.189728 
	C486.141571,119.550179 486.141571,125.598190 486.141571,132.127731 
	C489.147003,132.127731 491.872986,132.127731 494.863953,132.127731 
	C494.863953,136.246628 494.863953,139.884827 494.863922,144.514969 
M567.685791,153.500153 
	C567.685791,140.085495 567.685791,126.670845 567.685791,113.367401 
	C559.689209,113.367401 552.440918,113.367401 545.297791,113.367401 
	C545.297791,138.066208 545.297791,162.448425 545.297791,186.697021 
	C552.868164,186.697021 560.107666,186.697021 567.685791,186.697021 
	C567.685791,175.759064 567.685791,165.129623 567.685791,153.500153 
M551.128845,104.608437 
	C560.533813,106.343285 566.779785,103.735962 569.030212,97.135719 
	C571.148132,90.924126 568.169128,84.501114 562.011108,82.001923 
	C555.025208,79.166718 546.855103,81.958038 543.965820,88.167099 
	C541.057983,94.416046 543.474915,100.419189 551.128845,104.608437 
z"/>
<path fill="#90CED3" opacity="1.000000" stroke="none" 
	d="
M199.408447,240.773804 
	C220.271622,245.510864 240.609680,245.049377 260.809235,238.832642 
	C261.053101,239.279938 261.296967,239.727234 261.540833,240.174515 
	C259.176727,242.299744 256.978271,244.652130 254.422943,246.515076 
	C228.277985,265.576080 199.910141,269.158783 169.876251,257.617035 
	C111.981361,235.368500 78.308701,167.962891 94.895203,108.176537 
	C109.936852,53.958664 157.244095,19.632412 213.410446,22.181559 
	C264.931488,24.519876 309.291168,61.682556 318.656616,111.977051 
	C328.386993,164.231323 295.381409,208.281311 250.808182,218.422302 
	C206.348450,228.537476 156.378799,195.861618 149.263184,150.736237 
	C143.383118,113.446259 172.014465,82.018425 207.137009,81.779007 
	C232.204712,81.608124 253.275650,97.583321 257.686462,122.863312 
	C262.016235,147.679092 242.317352,171.841568 217.062958,172.031876 
	C206.820374,172.109055 206.818863,172.109039 206.811218,161.716080 
	C206.807465,156.602020 206.810562,151.487961 206.810562,146.141663 
	C211.514038,146.141663 215.577667,146.783279 219.354782,146.015427 
	C228.821426,144.090958 234.037231,134.730484 231.351608,125.451752 
	C227.695267,112.819244 214.493103,105.988052 200.592682,109.536186 
	C180.836655,114.578979 169.496155,135.481903 176.746536,154.875168 
	C185.030746,177.033707 202.384705,188.788925 224.879944,192.844055 
	C257.603027,198.742905 286.995667,172.364624 292.146912,141.691620 
	C298.908783,101.428429 268.410767,58.033764 224.468597,50.057388 
	C164.924911,39.249031 112.643837,86.479027 117.149437,146.727844 
	C120.441284,190.746384 153.759979,229.630188 197.113754,240.057877 
	C197.755356,240.212189 198.375473,240.455780 199.408447,240.773804 
z"/>
<path fill="#FEFEFE" opacity="1.000000" stroke="none" 
	d="
M398.138947,148.028320 
	C388.134247,148.275345 378.506714,148.275345 368.580078,148.275345 
	C368.580078,155.323196 368.580078,161.742798 368.580078,168.732742 
	C379.765900,168.732742 390.981476,168.732742 402.459717,168.732742 
	C402.459717,175.030365 402.459717,180.765564 402.459717,187.001770 
	C400.689484,187.001770 399.074524,187.001770 397.459564,187.001770 
	C380.351227,187.001770 363.242859,187.001770 345.965637,187.001770 
	C345.965637,155.913467 345.965637,125.307236 345.965637,94.360535 
	C364.654572,94.360535 383.382812,94.360535 402.423615,94.360535 
	C402.423615,100.035072 402.423615,105.769249 402.423615,111.910736 
	C391.268890,111.910736 380.177948,111.910736 368.682526,111.910736 
	C368.682526,118.337196 368.682526,124.378059 368.682526,130.942261 
	C378.531921,130.942261 388.421478,130.942261 398.516113,130.942261 
	C398.516113,136.896835 398.516113,142.339050 398.138947,148.028320 
z"/>
<path fill="#FCFDFD" opacity="1.000000" stroke="none" 
	d="
M776.895081,113.943626 
	C794.881226,120.688988 802.986023,134.884552 800.533630,155.349472 
	C783.857788,155.349472 767.111633,155.349472 750.422119,155.349472 
	C749.797913,161.499695 752.509338,166.138824 757.713562,168.415878 
	C763.148376,170.793808 769.892883,169.800171 773.202393,165.374588 
	C775.128113,162.799347 777.172791,162.399963 779.955505,162.454483 
	C786.111572,162.575089 792.271729,162.492004 798.993286,162.492004 
	C797.205627,170.747009 792.749207,176.882446 786.192139,181.364471 
	C773.159668,190.272690 755.102783,190.513626 742.457703,181.757950 
	C728.838501,172.327759 725.180969,158.466156 727.608948,143.039780 
	C731.365723,119.170471 752.421997,106.903328 776.895081,113.943626 
M777.164917,138.597107 
	C774.120544,132.282501 768.473755,129.238419 761.789551,130.308609 
	C755.103638,131.379044 751.202881,135.513443 750.188721,142.767059 
	C759.319214,142.767059 768.424194,142.767059 777.843628,142.767059 
	C777.695679,141.543869 777.563538,140.451553 777.164917,138.597107 
z"/>
<path fill="#FDFDFD" opacity="1.000000" stroke="none" 
	d="
M661.056763,117.983994 
	C681.861755,105.777588 708.022949,112.676628 716.035339,132.899734 
	C718.698547,139.621475 718.880981,147.326126 720.328552,155.303467 
	C702.066650,155.303467 685.335938,155.303467 668.671326,155.303467 
	C667.893982,161.237152 670.635498,166.008560 675.833130,168.347336 
	C681.226746,170.774261 688.096252,169.833618 691.374268,165.501175 
	C693.267822,162.998535 695.200928,162.368820 698.057922,162.442825 
	C704.317871,162.604980 710.584961,162.493042 716.937927,162.493042 
	C714.434387,176.009674 701.761597,186.515518 686.862488,187.897934 
	C668.798950,189.573959 653.763428,180.961868 647.920959,165.592819 
	C641.204224,147.923599 646.395630,128.703613 661.056763,117.983994 
M673.574646,132.899033 
	C671.503845,135.898941 669.432983,138.898865 666.781738,142.739563 
	C677.504456,142.739563 686.677795,142.739563 696.424927,142.739563 
	C695.790100,140.524933 695.544312,138.518082 694.673828,136.834183 
	C691.296509,130.301163 682.564453,128.492477 673.574646,132.899033 
z"/>
<path fill="#FCFCFC" opacity="1.000000" stroke="none" 
	d="
M438.393066,131.318512 
	C435.695831,135.814011 437.758118,138.386719 441.542877,139.728760 
	C446.227631,141.389938 451.101196,142.513229 455.872894,143.936905 
	C458.575317,144.743195 461.334198,145.467468 463.898987,146.607925 
	C471.514771,149.994385 476.837616,155.147003 477.290985,164.160995 
	C477.745728,173.202744 473.545441,179.373764 465.984283,183.659363 
	C451.675232,191.769623 430.221893,188.792892 419.576263,176.654236 
	C416.479492,173.123138 414.931274,168.233917 412.079681,162.845718 
	C420.596924,162.845718 427.234070,162.734680 433.859467,162.963593 
	C434.871155,162.998550 436.124603,164.431778 436.760925,165.515076 
	C439.885040,170.833649 447.572906,173.217667 452.819641,169.984360 
	C454.277954,169.085663 455.794250,166.938736 455.781830,165.376419 
	C455.769623,163.838623 454.169800,161.510056 452.711243,160.933701 
	C447.792053,158.989883 442.624512,157.675705 437.554901,156.111145 
	C434.701263,155.230469 431.748108,154.573959 429.023438,153.392746 
	C421.921844,150.314011 416.635162,145.626541 416.011017,137.255783 
	C415.338745,128.240494 418.747467,121.022293 426.677277,116.848358 
	C438.705017,110.517441 451.283508,110.076065 463.592834,116.151695 
	C471.264343,119.938194 475.427765,127.035706 476.775940,136.892853 
	C469.972260,136.892853 463.196320,136.892853 456.398773,136.892853 
	C452.316162,128.749115 446.227203,126.725212 438.393066,131.318512 
z"/>
<path fill="#FBFCFC" opacity="1.000000" stroke="none" 
	d="
M614.067444,158.077026 
	C611.313904,161.373322 608.778625,164.389160 605.728577,168.017349 
	C616.507874,168.017349 626.549683,168.017349 637.000732,168.017349 
	C637.000732,174.463470 637.000732,180.503510 637.000732,186.779358 
	C618.272766,186.779358 599.515869,186.779358 580.061096,186.779358 
	C580.528137,177.886215 578.168152,169.041946 586.190613,161.133972 
	C594.973328,152.476624 602.177307,142.217743 610.644104,131.960480 
	C600.118896,131.960480 590.552124,131.960480 580.636536,131.960480 
	C580.636536,125.685181 580.636536,119.774101 580.636536,113.455490 
	C599.054382,113.455490 617.593140,113.455490 636.804932,113.455490 
	C636.374878,122.064163 639.084229,131.003510 630.861877,138.502533 
	C624.643372,144.173981 619.762085,151.311539 614.067444,158.077026 
z"/>
<path fill="#FEFEFE" opacity="1.000000" stroke="none" 
	d="
M494.863953,144.019012 
	C494.863953,139.884827 494.863953,136.246628 494.863953,132.127731 
	C491.872986,132.127731 489.147003,132.127731 486.141571,132.127731 
	C486.141571,125.598190 486.141571,119.550179 486.141571,113.189728 
	C488.910522,113.189728 491.523560,113.189728 494.602356,113.189728 
	C494.602356,107.169289 494.602356,101.430382 494.602356,95.376175 
	C502.287048,95.376175 509.514984,95.376175 517.274353,95.376175 
	C517.274353,101.094879 517.274353,106.825684 517.274353,112.943268 
	C522.368408,112.943268 526.958801,112.943268 531.856689,112.943268 
	C531.856689,119.386589 531.856689,125.428375 531.856689,131.843079 
	C527.191833,131.843079 522.584351,131.843079 517.603027,131.843079 
	C517.603027,142.301529 517.357849,152.410141 517.830688,162.485046 
	C517.915100,164.282318 520.700745,166.804184 522.729492,167.449341 
	C525.435669,168.309952 528.621582,167.662018 531.962097,167.662018 
	C531.962097,174.113373 531.962097,180.185883 531.962097,186.861557 
	C523.491882,186.965347 514.755005,187.978867 506.467621,184.018967 
	C498.691345,180.303299 495.558258,173.564270 495.104279,165.482864 
	C494.712646,158.511063 494.920898,151.505569 494.863953,144.019012 
z"/>
<path fill="#FBFBFB" opacity="1.000000" stroke="none" 
	d="
M567.685791,154.000168 
	C567.685791,165.129623 567.685791,175.759064 567.685791,186.697021 
	C560.107666,186.697021 552.868164,186.697021 545.297791,186.697021 
	C545.297791,162.448425 545.297791,138.066208 545.297791,113.367401 
	C552.440918,113.367401 559.689209,113.367401 567.685791,113.367401 
	C567.685791,126.670845 567.685791,140.085495 567.685791,154.000168 
z"/>
<path fill="#FBFBFB" opacity="1.000000" stroke="none" 
	d="
M550.787476,104.435593 
	C543.474915,100.419189 541.057983,94.416046 543.965820,88.167099 
	C546.855103,81.958038 555.025208,79.166718 562.011108,82.001923 
	C568.169128,84.501114 571.148132,90.924126 569.030212,97.135719 
	C566.779785,103.735962 560.533813,106.343285 550.787476,104.435593 
z"/>
<path fill="#192231" opacity="1.000000" stroke="none" 
	d="
M777.298157,138.978180 
	C777.563538,140.451553 777.695679,141.543869 777.843628,142.767059 
	C768.424194,142.767059 759.319214,142.767059 750.188721,142.767059 
	C751.202881,135.513443 755.103638,131.379044 761.789551,130.308609 
	C768.473755,129.238419 774.120544,132.282501 777.298157,138.978180 
z"/>
<path fill="#192331" opacity="1.000000" stroke="none" 
	d="
M673.869873,132.660660 
	C682.564453,128.492477 691.296509,130.301163 694.673828,136.834183 
	C695.544312,138.518082 695.790100,140.524933 696.424927,142.739563 
	C686.677795,142.739563 677.504456,142.739563 666.781738,142.739563 
	C669.432983,138.898865 671.503845,135.898941 673.869873,132.660660 
z"/>
</svg>